<?xml version="1.0" standalone="no"?>
<!DOCTYPE svg PUBLIC "-//W3C//DTD SVG 20010904//EN"
 "http://www.w3.org/TR/2001/REC-SVG-20010904/DTD/svg10.dtd">
<svg version="1.0" xmlns="http://www.w3.org/2000/svg"
 width="512.000000pt" height="512.000000pt" viewBox="0 0 512.000000 512.000000"
 preserveAspectRatio="xMidYMid meet">

<g transform="translate(0.000000,512.000000) scale(0.100000,-0.100000)"
fill="#000000" stroke="none">
<path d="M2488 5097 c-59 -35 -266 -272 -424 -482 -155 -207 -326 -479 -428
-682 l-55 -110 -103 19 c-394 71 -851 91 -1252 57 -130 -11 -163 -23 -196 -69
-33 -46 -34 -83 -5 -250 97 -558 305 -1138 547 -1523 l49 -78 -33 -38 c-18
-21 -77 -90 -131 -152 -195 -225 -441 -570 -453 -635 -10 -52 11 -108 51 -141
18 -15 114 -69 212 -120 664 -341 1380 -524 1899 -484 77 6 163 14 192 17 l52
7 0 -157 c0 -184 12 -221 80 -256 50 -25 90 -25 140 0 68 35 80 72 80 256 l0
157 53 -7 c28 -3 114 -11 191 -17 519 -40 1235 143 1899 484 98 51 194 105
212 120 40 33 61 89 51 141 -12 65 -258 410 -453 635 -54 62 -113 131 -131
152 l-33 38 49 78 c242 385 450 965 547 1523 29 167 28 204 -5 250 -33 46 -66
58 -196 69 -401 34 -858 14 -1252 -57 l-103 -19 -59 117 c-180 353 -448 737
-731 1046 -91 101 -138 134 -189 134 -19 0 -52 -10 -72 -23z m155 -446 c260
-306 504 -688 646 -1009 56 -129 113 -158 246 -127 305 71 774 113 1104 99
l153 -7 -6 -48 c-10 -77 -101 -428 -146 -566 -112 -342 -241 -621 -392 -847
-78 -117 -89 -140 -90 -185 -1 -54 19 -84 129 -201 100 -108 209 -235 299
-350 69 -88 164 -221 164 -230 0 -8 -202 -105 -350 -167 -427 -181 -833 -285
-1200 -308 -110 -7 -354 7 -440 26 l-50 11 0 236 0 237 355 355 c247 247 358
365 366 388 21 64 -12 146 -71 177 -34 18 -102 20 -133 4 -12 -6 -133 -122
-269 -257 l-248 -247 0 270 0 270 270 270 c291 291 310 316 295 392 -8 46 -69
107 -115 117 -74 14 -104 -5 -282 -182 l-168 -166 0 395 c0 355 -2 397 -18
429 -53 107 -211 107 -264 0 -16 -32 -18 -74 -18 -429 l0 -395 -168 166 c-178
177 -208 196 -282 182 -46 -10 -107 -71 -115 -117 -15 -76 4 -101 295 -392
l270 -270 0 -270 0 -270 -247 247 c-137 135 -258 251 -270 257 -31 16 -99 14
-133 -4 -59 -31 -92 -113 -71 -177 8 -23 119 -141 366 -388 l355 -355 0 -237
0 -236 -50 -11 c-86 -19 -330 -33 -440 -26 -367 23 -773 127 -1200 308 -148
62 -350 159 -350 167 0 9 95 142 164 230 90 115 199 242 299 350 110 117 130
147 129 201 -1 45 -12 68 -90 185 -151 226 -280 505 -392 847 -45 138 -136
489 -146 566 l-6 48 153 7 c330 14 799 -28 1104 -99 133 -31 190 -2 246 127
105 239 273 522 459 773 86 116 259 325 269 325 5 0 42 -40 84 -89z"/>
</g>
</svg>
